<svg width="52" height="53" viewBox="0 0 52 53" fill="none" xmlns="http://www.w3.org/2000/svg">
<path d="M4.33333 24.2463C4.08179 24.108 3.86074 23.9204 3.6834 23.6947C3.50606 23.469 3.37608 23.2098 3.30124 22.9327C3.22639 22.6555 3.20822 22.3662 3.24782 22.0819C3.28741 21.7975 3.38395 21.5241 3.53166 21.278L6.78167 15.6663C7.02 15.233 7.38833 14.9297 7.8 14.7563L24.765 5.22301C25.1117 4.96301 25.545 4.83301 26 4.83301C26.455 4.83301 26.8883 4.96301 27.235 5.22301L44.3517 14.843C44.7633 15.0597 45.11 15.4063 45.305 15.8397L48.4467 21.2997C49.0533 22.3397 48.685 23.6613 47.6667 24.2463L45.5 25.503V36.2497C45.5 37.073 45.045 37.788 44.3517 38.1563L27.235 47.7763C26.8883 48.0363 26.455 48.1663 26 48.1663C25.545 48.1663 25.1117 48.0363 24.765 47.7763L7.64833 38.1563C7.30097 37.9738 7.01027 37.6996 6.80782 37.3634C6.60537 37.0273 6.49891 36.6421 6.5 36.2497V24.2463C5.85 24.6147 5.02666 24.6363 4.33333 24.2463ZM26 9.49134V24.008L38.9133 16.7497L26 9.49134ZM10.8333 34.9713L23.8333 42.2947V27.7563L10.8333 20.4547V34.9713ZM41.1667 34.9713V27.9947L30.3333 34.278C29.6183 34.668 28.8167 34.6463 28.1667 34.2997V42.2947L41.1667 34.9713ZM30.0083 29.4463L43.615 21.5813L42.3583 19.393L28.7517 27.258L30.0083 29.4463Z" fill="#026D4D"/>
</svg>
