<svg width="277" height="201" viewBox="0 0 277 201" fill="none" xmlns="http://www.w3.org/2000/svg">
<path d="M276.375 100.72C276.375 58.641 242.264 24.5293 200.185 24.5293H76.3752C34.2964 24.5293 0.184692 58.6409 0.184692 100.72V124.529C0.184692 166.608 34.2963 200.72 76.3752 200.72H200.185C242.264 200.72 276.375 166.608 276.375 124.529V100.72Z" fill="#026D4D"/>
<rect x="187.401" y="6.67188" width="14.1898" height="2.78483" transform="rotate(32.6414 187.401 6.67188)" fill="white"/>
<rect x="211.037" y="62.9131" width="18.4741" height="4.92701" transform="rotate(-30.1116 211.037 62.9131)" fill="#E50A3E"/>
<rect x="244.523" y="31.7422" width="9.90543" height="4.92701" transform="rotate(37.6414 244.523 31.7422)" fill="#FFB21D"/>
<mask id="mask0_298_24161" style="mask-type:alpha" maskUnits="userSpaceOnUse" x="0" y="0" width="277" height="201">
<rect width="276.191" height="200" rx="76.1905" transform="matrix(-1 0 0 1 276.375 0.719727)" fill="#026D4D"/>
</mask>
<g mask="url(#mask0_298_24161)">
<rect x="88.6681" y="79.6914" width="14.1898" height="2.78483" transform="rotate(-106.554 88.6681 79.6914)" fill="white"/>
<rect x="287.827" y="84.8662" width="14.1898" height="7.06918" transform="rotate(-172.307 287.827 84.8662)" fill="#F2D1BB"/>
<rect x="154.247" y="108.779" width="14.1898" height="7.06918" transform="rotate(-167.307 154.247 108.779)" fill="white"/>
<rect x="107.529" y="21.6748" width="18.4741" height="4.92701" transform="rotate(-169.307 107.529 21.6748)" fill="#E50A3E"/>
<rect x="61.8124" y="23.3877" width="9.90543" height="4.92701" transform="rotate(-101.554 61.8124 23.3877)" fill="#FFB21D"/>
<rect x="101.28" y="38.4668" width="12.0476" height="7.06918" transform="rotate(-136.554 101.28 38.4668)" fill="#FFB21D"/>
<rect x="51.3339" y="77.2861" width="5.62107" height="2.78483" transform="rotate(-66.5544 51.3339 77.2861)" fill="#FFB21D"/>
<ellipse cx="81.485" cy="135.733" rx="3.38464" ry="3.38464" transform="rotate(91.6925 81.485 135.733)" fill="#E50A3E"/>
<ellipse cx="222.301" cy="157.039" rx="1.24246" ry="1.24246" transform="rotate(91.6925 222.301 157.039)" fill="white"/>
<ellipse cx="215.687" cy="163.272" rx="3.38464" ry="3.38464" transform="rotate(91.6925 215.687 163.272)" fill="white"/>
<ellipse cx="149.788" cy="108.819" rx="4.45573" ry="4.45573" transform="rotate(91.6925 149.788 108.819)" fill="#FFB21D"/>
<ellipse cx="9.99311" cy="88.7637" rx="2.31355" ry="2.31355" transform="rotate(-9.55445 9.99311 88.7637)" fill="#E50A3E"/>
<ellipse cx="144.82" cy="59.3808" rx="4.45573" ry="4.45573" transform="rotate(91.6925 144.82 59.3808)" fill="#FFB21D"/>
<ellipse cx="212.264" cy="97.8067" rx="2.31355" ry="2.31355" transform="rotate(91.6925 212.264 97.8067)" fill="#E50A3E"/>
<ellipse cx="34.9571" cy="42.2041" rx="3.38464" ry="3.38464" transform="rotate(91.6925 34.9571 42.2041)" fill="white"/>
<path d="M98.8065 78.2848L101.01 77.1353L103.107 78.4685L103.001 80.9511L100.798 82.1006L98.7005 80.7675L98.8065 78.2848Z" fill="#F2D1BB"/>
<path d="M61.8985 45.3331L60.7866 48.6668L57.4529 47.5549L58.5648 44.2212L61.8985 45.3331Z" fill="#E50A3E"/>
<path d="M41.4571 126.531L51.323 126.263L46.6219 134.941L41.4571 126.531Z" fill="#FFB21D"/>
<path d="M240.756 151.283L244.747 150.04L247.163 153.451L244.665 156.803L240.706 155.463L240.756 151.283Z" fill="white"/>
<path d="M147.934 20.7254L145.893 16.9361L150.195 17.0632L147.934 20.7254Z" fill="#F2D1BB"/>
<path d="M100.574 199.728L99.9903 196.262L103.456 195.679L104.039 199.145L100.574 199.728Z" fill="white"/>
<path d="M188.687 159.772C192.979 150.003 203.341 129.754 210.446 126.912C219.327 123.359 226.432 121.139 229.54 118.03C232.649 114.922 236.645 113.146 238.866 115.366C240.642 117.142 231.909 123.803 227.32 126.912C227.764 127.8 229.185 129.487 231.317 129.132C233.981 128.688 253.964 128.688 260.624 127.8C267.285 126.912 268.174 130.908 268.174 131.796C268.174 132.684 257.516 133.573 252.187 134.461C248.809 135.024 245.951 134.88 244.321 134.649C248.783 135.479 257.616 137.145 264.177 138.457C273.058 140.233 273.058 142.898 272.614 144.23C272.259 145.296 260.921 144.082 255.296 143.342C259.588 144.526 268.174 147.427 268.174 149.559C268.174 151.69 248.339 147.486 238.421 145.118C243.898 148.819 254.852 156.664 254.852 158.44C254.852 160.66 253.075 161.548 251.743 160.66C250.411 159.772 237.977 148.671 226.432 148.671C214.886 148.671 210.446 151.335 207.781 159.772C205.65 166.522 200.528 170.726 198.012 171.762L188.687 159.772Z" fill="#E5A072"/>
<path d="M227.32 126.912C229.393 125.432 234.07 121.85 236.202 119.363" stroke="black" stroke-width="1.42099" stroke-linecap="round"/>
<path d="M238.422 144.674C246.859 147.043 264.266 151.513 266.397 150.447C269.062 149.115 268.174 148.671 260.625 145.118C254.585 142.276 245.379 140.086 241.53 139.346" stroke="black" stroke-width="1.42099" stroke-linecap="round"/>
<path d="M69.2348 116.255L75.8957 145.119L63.4618 156.664C60.2054 145.711 52.4491 122.738 47.4757 118.475C41.2588 113.146 36.8182 114.034 25.7167 112.702C14.6152 111.37 12.839 110.926 13.2831 108.706C13.6383 106.929 26.4568 106.485 32.8217 106.485C23.7925 103.525 5.55642 96.9825 4.84592 94.4958C4.13542 92.009 7.21428 91.9794 8.84252 92.2755C5.7341 90.9433 -0.9268 90.0552 4.40192 86.5027C8.66489 83.6607 23.6445 90.0552 30.6014 93.6076C28.5292 91.6834 22.8749 86.6803 16.8357 82.0621C9.28666 76.2893 14.1713 76.7334 18.1679 78.0655C22.1644 79.3977 48.808 97.6042 51.9164 97.6042C55.0248 97.6042 54.1368 98.0482 50.1402 90.4992C46.1437 82.9502 48.364 80.2858 52.3605 82.5061C55.5578 84.2824 57.2452 89.4631 57.6893 91.8314C59.4655 93.7557 63.9061 98.9364 67.4586 104.265C71.0111 109.594 70.1229 114.478 69.2348 116.255Z" fill="#E5A072"/>
<path d="M2.62561 90.0547C9.28651 91.8309 24.651 96.0939 32.8217 98.9359" stroke="#232323" stroke-width="1.42099" stroke-linecap="round"/>
<path d="M72.7875 133.129C71.6034 126.616 70.7448 112.08 76.7841 106.041C82.7469 100.078 106.805 96.2223 118.526 94.9859C132.883 89.0497 165.596 80.9962 181.582 96.2719C197.568 111.548 205.117 124.544 206.893 129.132L192.239 157.552L204.229 165.101L207.782 159.328C212.755 162.17 215.479 167.321 216.219 169.542L202.897 185.084C207.515 195.741 200.677 201.958 196.68 203.734C193.72 207.583 186.289 216.879 180.25 223.273C174.211 229.667 164.412 227.714 160.267 225.937C152.096 232.332 141.173 234.819 136.732 235.263C98.7205 241.302 80.3364 226.233 75.8958 217.944C73.7643 215.813 74.4156 211.135 75.0077 209.063C64.3502 196.985 63.1661 181.827 63.9062 175.759C61.6859 173.686 55.8244 167.321 50.1404 158.44C44.4564 149.559 52.8048 140.826 57.6894 137.569L62.13 152.667C74.5637 144.852 74.4157 136.385 72.7875 133.129Z" fill="#EB7910"/>
<path d="M177.141 146.895C170.628 158.736 157.603 184.196 157.603 191.301C151.83 201.662 144.991 223.362 163.819 227.269C169 229.342 182.648 227.713 195.792 204.622" stroke="black" stroke-width="1.42099" stroke-linecap="round"/>
<path d="M109.653 96.1273C115.01 111.25 128.877 131.662 154.05 125.136C170.773 120.8 177.808 107.956 180.069 94.9348C163.612 81.487 132.444 89.2313 118.525 94.9859C116.029 95.2492 112.974 95.6313 109.653 96.1273Z" fill="#F2D1BB"/>
<path d="M106.536 117.143C106.536 123.951 108.667 140.234 117.193 150.891" stroke="#232323" stroke-width="1.42099" stroke-linecap="round"/>
<path d="M63.9059 175.759C63.4618 188.192 67.7248 213.415 88.3292 214.836C108.934 216.257 109.348 195.593 106.98 185.084C106.832 166.285 103.25 124.514 90.1055 107.817" stroke="#232323" stroke-width="1.42099" stroke-linecap="round"/>
<path d="M122.966 69.6279C122.226 71.1081 121.101 74.6014 122.522 76.7329" stroke="#232323" stroke-width="1.42099" stroke-linecap="round"/>
<path d="M148.722 70.96C149.462 72.4402 150.587 75.9334 149.166 78.0649" stroke="#232323" stroke-width="1.42099" stroke-linecap="round"/>
<path d="M135.4 119.363C125.808 114.745 117.489 98.7881 114.529 91.3871C105.292 68.296 114.529 35.8797 120.302 22.5579C124.742 20.6336 137.886 17.8508 154.938 22.1138C171.99 26.3768 170.628 85.4663 167.816 114.478C161.007 118.031 144.991 123.981 135.4 119.363Z" fill="#E5A072"/>
<ellipse opacity="0.3" cx="122.227" cy="62.5046" rx="4.6791" ry="2.21308" transform="rotate(4.89398 122.227 62.5046)" fill="#E50A3E"/>
<ellipse opacity="0.3" cx="148.244" cy="63.7956" rx="4.6791" ry="2.21308" transform="rotate(4.89398 148.244 63.7956)" fill="#E50A3E"/>
<path d="M158.595 118.323C153.392 120.053 147.317 121.373 141.941 120.98C145.523 115.579 149.002 107.587 151.386 95.8274C145.613 100.12 132.291 101.689 121.634 84.2819C122.512 85.0928 123.35 85.8934 124.161 86.6696C128.685 90.9944 132.417 94.5628 138.064 94.9393C147.902 95.5952 154.938 86.9462 162.043 72.7363L158.595 118.323Z" fill="#BE693B"/>
<path d="M145.531 80.8791C143.194 83.1736 139.22 84.7172 134.688 84.1724C130.986 83.7285 128.309 82.6101 126.535 81.1947C123.7 78.9348 123.158 75.9225 124.391 73.6726C125.259 72.0872 126.761 71.7125 128.405 71.7528C129.608 71.7745 130.892 72.0238 132.062 72.178C134.323 72.4706 138.159 68.9957 142.621 70.4139C143.612 70.7295 144.635 71.2873 145.677 72.178C148.71 74.7752 148.149 78.3006 145.53 80.8791H145.531Z" fill="#232323"/>
<path d="M134.688 84.1725C139.219 84.7173 143.194 83.1737 145.531 80.8792C145.782 80.6318 146.014 80.3758 146.226 80.1127C143.59 78.703 139.814 77.9095 135.661 78.0911C131.829 78.2616 128.395 79.2308 125.925 80.6647C126.115 80.8453 126.318 81.0223 126.534 81.1948C128.309 82.6101 130.986 83.7286 134.688 84.1725Z" fill="#E50A3E"/>
<path d="M127.055 75.5235C129.364 76.0464 136.84 77.3722 143.695 74.512V74.5137C144.037 74.3703 144.231 74.0006 144.171 73.6308L143.715 70.8592C143.347 70.6757 142.982 70.5288 142.621 70.4139C139.851 69.5335 137.323 70.5386 135.262 71.3577C134.003 71.8581 132.919 72.289 132.062 72.178C131.751 72.1371 131.433 72.0894 131.11 72.0411C130.216 71.9075 129.289 71.7687 128.406 71.7528C127.856 71.7394 127.322 71.7722 126.823 71.8812L126.44 74.6163C126.38 75.0349 126.647 75.4307 127.055 75.5235Z" fill="white"/>
<path d="M135.4 48.3135C134.808 52.014 133.002 60.0367 130.515 62.5234C127.407 65.6318 132.291 68.7402 135.844 67.8521" stroke="#232323" stroke-width="1.77624" stroke-linecap="round"/>
<path d="M156.506 42.4256L157.389 43.6626C157.827 44.2752 157.35 45.1253 156.598 45.0912C149.048 44.7489 144.031 45.8565 141.85 46.6881C141.449 46.8411 140.966 46.727 140.878 46.307C140.719 45.5582 140.954 44.4619 142.504 43.4282C144.55 42.0644 152.486 41.8187 155.87 42.0628C156.126 42.0813 156.356 42.2163 156.506 42.4256Z" fill="#232323"/>
<path d="M117.247 40.4488L116.286 41.6264C115.81 42.2095 116.231 43.0886 116.984 43.103C124.54 43.2476 129.475 44.6759 131.597 45.6462C131.988 45.8247 132.477 45.7419 132.593 45.3285C132.799 44.5915 132.635 43.4823 131.155 42.351C129.201 40.8582 121.297 40.102 117.905 40.1278C117.648 40.1297 117.41 40.2496 117.247 40.4488Z" fill="#232323"/>
<mask id="mask1_298_24161" style="mask-type:alpha" maskUnits="userSpaceOnUse" x="141" y="43" width="20" height="13">
<path d="M159.105 55.6678C155.668 56.3553 147.381 55.2967 143.093 54.4228C142.828 54.369 142.604 54.1979 142.494 53.9512C141.239 51.1155 140.334 45.3737 147.116 43.6782C155.997 41.4579 163.546 54.7797 159.105 55.6678Z" fill="#232323"/>
</mask>
<g mask="url(#mask1_298_24161)">
<ellipse cx="149.165" cy="51.8661" rx="4.88466" ry="4.88466" fill="white"/>
<ellipse cx="150.053" cy="51.8662" rx="3.10842" ry="3.10842" fill="#232323"/>
</g>
<mask id="mask2_298_24161" style="mask-type:alpha" maskUnits="userSpaceOnUse" x="117" y="42" width="20" height="14">
<path d="M135.126 54.7801C131.689 55.4676 123.401 54.409 119.113 53.5351C118.849 53.4813 118.624 53.3102 118.515 53.0635C117.26 50.2278 116.354 44.486 123.136 42.7905C132.018 40.5702 139.567 53.892 135.126 54.7801Z" fill="#232323"/>
</mask>
<g mask="url(#mask2_298_24161)">
<ellipse cx="125.186" cy="50.9784" rx="4.88466" ry="4.88466" fill="white"/>
<ellipse cx="126.074" cy="50.9785" rx="3.10842" ry="3.10842" fill="#232323"/>
</g>
<path d="M144.281 54.9746C146.205 55.1226 150.675 55.5963 153.162 56.3068" stroke="#232323" stroke-width="1.42099" stroke-linecap="round"/>
<path d="M120.302 54.0859C122.226 54.234 126.696 54.7076 129.183 55.4181" stroke="#232323" stroke-width="1.42099" stroke-linecap="round"/>
<path d="M133.623 23.0019C127.851 21.9658 116.039 25.1334 114.973 46.093C113.641 72.2925 115.861 77.6213 123.854 87.8346L123.41 93.6074C116.009 94.9396 100.141 97.6928 95.8784 98.048C99.4309 89.1668 106.713 68.4736 107.424 56.7505C108.312 42.0965 108.756 6.12763 140.284 1.68703C146.945 -0.533264 162.843 -0.355639 173.145 18.1172C186.023 41.2084 192.239 110.926 192.683 118.475C193.128 126.024 193.572 142.898 195.792 145.118L190.907 140.234C188.095 145.71 180.516 158.529 172.701 165.989C164.885 173.449 154.938 177.979 150.942 179.311C152.422 178.423 155.471 176.291 155.827 174.87C156.271 173.094 146.945 174.426 145.169 160.66C144.203 153.175 146.055 148.411 148.13 145.756C144.28 149.901 140.283 157.949 143.393 169.542C141.913 168.506 139.485 162.97 141.617 149.115C144.281 131.797 155.382 123.803 158.935 98.4921C162.487 73.1807 160.267 40.7643 150.054 30.995C139.84 21.2257 134.512 23.1221 133.623 23.0019Z" fill="#232323" stroke="#232323" stroke-width="1.77624" stroke-linecap="round"/>
<path d="M13.2832 79.3975C19.352 84.2821 32.5554 94.4067 36.8184 95.8277" stroke="#232323" stroke-width="1.42099" stroke-linecap="round"/>
<path d="M49.696 82.0623C50.7322 81.9143 53.3373 82.5952 55.4688 86.5029C57.6003 90.4107 58.4292 92.5717 58.5772 93.1638C63.1659 97.6044 71.7214 108.439 69.2347 116.255L69.6787 118.031C68.9386 122.028 65.2381 128.156 56.3569 120.696" stroke="#232323" stroke-width="1.42099" stroke-linecap="round"/>
<path d="M49.2486 156.808C45.4679 148.508 53.1045 140.626 57.6894 137.569L62.13 152.667C62.2734 152.577 62.415 152.487 62.555 152.397L62.574 152.667C61.0946 154.716 56.6932 157.656 49.2486 156.808Z" fill="#DE8845"/>
<path d="M194.712 152.757L192.239 157.552L204.229 165.101L207.782 159.328C212.755 162.17 215.479 167.321 216.219 169.542L214.936 171.038C209.114 167.765 190.791 158.304 190.019 154.444C189.406 151.379 192.271 152.063 194.712 152.757Z" fill="#DE8845"/>
<path d="M207.337 160.66C207.929 157.7 210.535 151.335 216.219 149.559C221.903 147.783 228.356 148.819 230.873 149.559" stroke="black" stroke-width="1.42099" stroke-linecap="round"/>
<path d="M273.278 143.786C273.278 141.566 268.838 139.346 260.845 137.569C254.45 136.148 246.931 134.905 243.97 134.461" stroke="black" stroke-width="1.42099" stroke-linecap="round"/>
<path d="M62.5738 152.668C59.3173 142.898 52.1828 122.827 49.696 120.695" stroke="#232323" stroke-width="1.42099" stroke-linecap="round"/>
<path fill-rule="evenodd" clip-rule="evenodd" d="M160.663 105.443C160.157 102.834 157.632 101.13 155.023 101.636L95.3847 113.206C92.7758 113.712 91.0712 116.237 91.5773 118.846L105.438 190.293C105.944 192.902 108.469 194.607 111.078 194.101L114.025 193.529L110.19 194.273C108.485 194.604 107.778 196.656 108.916 197.967C110.055 199.277 112.186 198.864 112.752 197.222L114.025 193.529C114.028 193.528 114.032 193.53 114.034 193.532L115.31 195.001C117.019 196.968 120.216 196.348 121.065 193.884L121.7 192.043C121.701 192.041 121.702 192.04 121.704 192.039C121.706 192.039 121.708 192.04 121.709 192.041L122.991 193.517C124.697 195.482 127.892 194.859 128.74 192.398C129.134 191.256 130.108 190.409 131.295 190.179L135.142 189.432C136.328 189.202 137.548 189.623 138.341 190.536C140.048 192.501 143.243 191.884 144.092 189.423L144.729 187.575C144.729 187.573 144.731 187.572 144.733 187.572C144.734 187.571 144.736 187.572 144.737 187.573L146.015 189.044C147.724 191.011 150.921 190.391 151.77 187.928L152.405 186.086C152.406 186.084 152.407 186.083 152.409 186.083C152.41 186.082 152.412 186.083 152.413 186.084L153.694 187.558C155.401 189.524 158.596 188.904 159.445 186.443L160.081 184.597C160.082 184.595 160.083 184.594 160.085 184.593C160.087 184.593 160.088 184.594 160.09 184.595L161.369 186.068C163.077 188.034 166.273 187.414 167.122 184.952L167.757 183.108C167.758 183.106 167.759 183.105 167.761 183.104C167.763 183.104 167.765 183.105 167.766 183.106L169.048 184.582C170.754 186.547 173.948 185.927 174.796 183.467L175.434 181.618C175.434 181.616 175.435 181.615 175.436 181.615C175.438 181.615 175.44 181.613 175.439 181.611L160.663 105.443ZM133.218 189.806C131.514 190.136 130.806 192.188 131.945 193.499C133.084 194.81 135.214 194.396 135.78 192.755C136.346 191.113 134.923 189.475 133.218 189.806Z" fill="white"/>
<rect opacity="0.5" x="97.3497" y="120.177" width="59.5469" height="4.81187" rx="2.40593" transform="rotate(-10.979 97.3497 120.177)" fill="#D9D9D9"/>
<rect opacity="0.5" x="106.285" y="166.233" width="59.5469" height="4.81187" rx="2.40593" transform="rotate(-10.979 106.285 166.233)" fill="#D9D9D9"/>
<rect opacity="0.5" x="109.034" y="180.405" width="59.5469" height="4.81187" rx="2.40593" transform="rotate(-10.979 109.034 180.405)" fill="#D9D9D9"/>
<rect opacity="0.5" x="98.7245" y="127.263" width="59.5469" height="4.81187" rx="2.40593" transform="rotate(-10.979 98.7245 127.263)" fill="#D9D9D9"/>
<rect opacity="0.5" x="107.659" y="173.319" width="59.5469" height="4.81187" rx="2.40593" transform="rotate(-10.979 107.659 173.319)" fill="#D9D9D9"/>
<path fill-rule="evenodd" clip-rule="evenodd" d="M143.757 137.288C144.915 135.571 144.462 133.235 142.746 132.076C141.031 130.917 138.696 131.37 137.538 133.087L129.499 145.004L124.829 141.85C123.111 140.69 120.779 141.142 119.62 142.861C118.461 144.579 118.913 146.913 120.631 148.073L128.406 153.325C129.2 153.862 130.125 154.053 131.005 153.934C132.032 153.797 132.997 153.238 133.622 152.312L143.757 137.288Z" fill="#23BA3B"/>
</g>
<rect width="14.1822" height="7.0681" transform="matrix(0.881896 -0.471444 0.470938 0.882166 191.491 29.8887)" fill="#FFB21D"/>
</svg>
