<svg width="276" height="200" viewBox="0 0 276 200" fill="none" xmlns="http://www.w3.org/2000/svg">
<path d="M276 100C276 57.9212 241.888 23.8096 199.81 23.8096H76.1905C34.1116 23.8096 0 57.9212 0 100V123.81C0 165.888 34.1116 200 76.1905 200H199.81C241.888 200 276 165.888 276 123.81V100Z" fill="#EB7910"/>
<mask id="mask0_298_24473" style="mask-type:alpha" maskUnits="userSpaceOnUse" x="0" y="0" width="276" height="200">
<path d="M276 76.1905C276 34.1116 241.888 0 199.81 0H76.1905C34.1116 0 0 34.1116 0 76.1905V123.81C0 165.888 34.1116 200 76.1905 200H199.81C241.888 200 276 165.888 276 123.81V76.1905Z" fill="#23BA3B"/>
</mask>
<g mask="url(#mask0_298_24473)">
<path d="M68.8337 149.931L106.38 135.912C107.761 135.396 109.194 135.031 110.654 134.822L154.07 128.616C157.763 128.088 161.53 128.577 164.966 130.03L222.872 154.523C227.909 156.653 231.887 160.706 233.922 165.782L263.773 240.214C269.269 253.92 258.922 268.77 244.16 268.36L225.071 267.829C223.603 267.788 222.278 266.943 221.622 265.63L221.109 264.603C219.464 261.312 214.535 262.241 214.202 265.906C214.031 267.787 212.454 269.228 210.564 269.228H52.0723C38.4747 269.228 28.6385 256.241 32.323 243.152L39.6275 217.203L56.4144 163.075C58.2962 157.007 62.8824 152.154 68.8337 149.931Z" fill="#D00000"/>
<path d="M188.536 139.999L159.715 127.809L108.458 135.136L93.8628 140.586C112.951 161.998 147.613 179.513 188.536 139.999Z" fill="#AEAEAE"/>
<path d="M114.316 130.007C115.488 127.663 113.828 118.284 112.851 113.887C104.65 105.68 98.6948 85.5543 96.7422 76.5171L90.8843 50.871L105.529 31.8197L134.819 31.0869C143.85 39.8799 163.23 58.0519 168.502 60.3967C175.092 63.3277 175.092 71.3879 172.895 79.4481C171.138 85.8962 166.305 88.4853 164.108 88.9738L161.179 100.698C161.911 109.002 163.669 126.051 164.84 127.809C166.012 129.568 173.627 133.915 177.289 135.869C143.898 167.524 114.56 149.547 104.065 136.602C106.994 135.381 113.144 132.352 114.316 130.007Z" fill="#E5A072"/>
<path d="M161.187 100.78C161.923 109.115 163.673 126.056 164.841 127.809C166.012 129.568 173.627 133.915 177.289 135.869C173.45 139.508 169.665 142.491 165.956 144.902C147.186 137.791 125.064 128.038 113.838 118.969C113.66 117.918 113.472 116.903 113.289 115.979C120.672 119.555 131.809 121.714 142.141 119.016C151.199 116.652 157.013 108.525 161.187 100.78Z" fill="#BE693B"/>
<path d="M165.573 69.9219C167.525 71.1431 170.698 74.4649 167.769 77.9821" stroke="#232323" stroke-width="2.93098" stroke-linecap="round"/>
<path d="M96.0098 71.3877C99.4269 87.5081 106.993 119.456 127.496 121.214" stroke="#232323" stroke-width="2.93098" stroke-linecap="round"/>
<path d="M98.2065 72.1204V80.9133C86.4906 60.3965 86.4907 49.8938 87.9552 47.2071L86.4907 45.0088C97.6208 9.83709 129.205 13.2566 143.605 19.3628C164.108 19.949 169.722 47.4513 169.966 61.1292C164.694 58.7844 161.911 65.5257 161.179 69.1894C160.593 62.1551 149.707 48.6726 144.338 42.8106L129.693 37.6814C120.32 51.1639 105.285 53.5575 98.9387 53.069C93.6666 56.5862 96.2539 67.2354 98.2065 72.1204Z" fill="#232323"/>
<path d="M119.442 70.6553C119.93 75.7845 120.613 86.6291 119.442 88.9739C117.977 91.9049 123.103 93.3704 127.496 91.9049" stroke="#232323" stroke-width="2.34478" stroke-linecap="round"/>
<path d="M102.8 62.2497C109.51 57.7627 112.453 60.0248 113.505 61.6345C113.883 62.2128 113.531 62.8833 112.887 63.1319L110.615 64.0077C106.383 65.6398 102.497 68.0575 99.1618 71.1334C98.729 71.5326 98.0392 71.5218 97.7524 71.0076C96.7703 69.2466 96.9165 66.1841 102.8 62.2497Z" fill="#232323"/>
<path d="M132.635 54.4006C138.036 54.3335 141.977 56.2862 144.659 58.3047C145.837 59.1911 144.843 60.8876 143.394 60.6186C132.484 58.5933 124.509 60.9836 123.371 60.1207C122.066 59.1309 121.435 54.5399 132.635 54.4006Z" fill="#232323"/>
<mask id="mask1_298_24473" style="mask-type:alpha" maskUnits="userSpaceOnUse" x="98" y="70" width="23" height="14">
<path d="M115.78 70.6553C105.59 70.6553 100.351 75.1598 98.6023 77.9824C98.3295 78.4229 98.394 78.9931 98.7145 79.4002C109.138 92.6385 129.467 70.6553 115.78 70.6553Z" fill="black"/>
</mask>
<g mask="url(#mask1_298_24473)">
<ellipse cx="108.828" cy="75.4208" rx="6.59067" ry="6.59419" transform="rotate(-19.6555 108.828 75.4208)" fill="white"/>
<ellipse cx="107.726" cy="77.25" rx="4.39344" ry="4.39647" fill="#232323"/>
</g>
<mask id="mask2_298_24473" style="mask-type:alpha" maskUnits="userSpaceOnUse" x="125" y="64" width="23" height="14">
<path d="M142.873 64.1299C132.683 64.1299 127.444 68.6344 125.695 71.457C125.423 71.8975 125.487 72.4677 125.808 72.8748C136.231 86.1131 156.56 64.1299 142.873 64.1299Z" fill="black"/>
</mask>
<g mask="url(#mask2_298_24473)">
<ellipse cx="135.921" cy="68.8954" rx="6.59067" ry="6.59419" transform="rotate(-19.6555 135.921 68.8954)" fill="white"/>
<ellipse cx="134.819" cy="70.7246" rx="4.39344" ry="4.39647" fill="#232323"/>
</g>
<path d="M178.529 47.0916L187.246 34.08" stroke="white" stroke-width="2.49084" stroke-linecap="round"/>
<path d="M183.137 53.3004L195.863 44.1523" stroke="white" stroke-width="2.49084" stroke-linecap="round"/>
<path d="M187.331 60.1993L202.763 57.358" stroke="white" stroke-width="2.49084" stroke-linecap="round"/>
<path d="M100.403 75.0518C102.6 73.342 108.751 70.0691 115.78 70.6553" stroke="#232323" stroke-width="2.34478" stroke-linecap="round"/>
<path d="M127.496 68.5264C129.693 66.8166 135.844 63.5437 142.873 64.1299" stroke="#232323" stroke-width="2.34478" stroke-linecap="round"/>
<ellipse opacity="0.3" cx="6.65887" cy="2.67575" rx="6.65887" ry="2.67575" transform="matrix(0.978901 -0.204334 0.204064 0.978958 132.622 82.9023)" fill="#E50A3E"/>
<ellipse opacity="0.3" cx="6.65887" cy="2.67575" rx="6.65887" ry="2.67575" transform="matrix(0.978901 -0.204334 0.204064 0.978958 103.332 88.7637)" fill="#E50A3E"/>
<ellipse cx="7.93239" cy="2.4674" rx="7.93239" ry="2.4674" transform="matrix(0.988147 -0.153511 0.153304 0.988179 126.764 101.667)" fill="#232323"/>
<path d="M85.2326 199.145L65.1164 157.152C64.7008 156.285 63.8681 155.692 62.9125 155.585L44.3459 153.491C42.6763 153.302 41.2195 154.621 41.2409 156.302L41.978 214.31C42.0025 216.236 43.9222 217.558 45.7298 216.895L83.6755 202.973C85.2219 202.406 85.9442 200.63 85.2326 199.145Z" fill="#FBF3E7"/>
<path d="M43.7346 97.1927C43.4551 99.6742 52.6696 110.765 57.3117 116.001L60.2224 118.746C61.1745 119.644 62.6226 119.759 63.7054 119.023L95.2215 97.6139C96.5018 96.7441 96.8309 94.9988 95.9552 93.723L81.5624 72.7542C80.7028 71.5018 79.0017 71.1653 77.7348 72.004C65.2383 80.2773 43.9973 94.8602 43.7346 97.1927Z" fill="#E50A3E"/>
<path d="M43.8431 115.738C28.7023 123.078 28.948 131.859 30.9634 135.332C27.5404 138.967 31.3415 143.123 33.67 144.747C36.0709 151.3 45.5879 167.138 53.2718 165.805C59.4189 164.74 64.5212 160.687 66.3039 158.794L64.0776 150.69C68.5311 140.135 65.0897 127.768 62.8124 122.904C64.5951 121.011 68.0864 116.211 67.7897 112.157C67.4188 107.089 62.7692 106.564 43.8431 115.738Z" fill="#E5A072"/>
<path d="M60.1059 113.489C59.3376 111.392 62.7983 110.023 64.6247 109.601C65.818 110.154 67.9906 111.488 67.1349 112.397C66.0653 113.533 61.0663 116.11 60.1059 113.489Z" fill="#EFC6AA"/>
<path d="M58.9272 118.383L56.5911 114.035" stroke="#232323" stroke-width="2.23356" stroke-linecap="round"/>
<path d="M66.5454 114.844C60.3168 118.12 46.5846 124.843 37.2067 130.068" stroke="#232323" stroke-width="2.23356" stroke-linecap="round"/>
<path d="M48.2735 146.08C51.7444 144.063 59.2843 140.851 61.6766 144.136C64.6671 148.243 62.5278 150.515 56.8739 153.332" stroke="#232323" stroke-width="2.23356" stroke-linecap="round"/>
<path d="M45.567 136.665C48.3612 134.153 56.8223 129.264 60.4545 132.69C64.0868 136.115 63.3793 142.024 62.5716 144.551" stroke="#232323" stroke-width="2.23356" stroke-linecap="round"/>
<path d="M52.8583 122.095C56.2563 122.583 63.2487 125.717 60.4544 132.69" stroke="#232323" stroke-width="2.23356" stroke-linecap="round"/>
<rect width="36.2744" height="4.75481" rx="2.37741" transform="matrix(-0.823141 0.568027 0.567374 0.82333 77.1138 76.7686)" fill="#F2D1BB"/>
<rect width="36.2744" height="3.24462" rx="1.62231" transform="matrix(-0.823141 0.568027 0.567374 0.82333 80.5383 81.46)" fill="#F2D1BB"/>
<path d="M65.4312 158.334C71.3794 176.191 86.9639 213.453 101.716 219.644" stroke="#232323" stroke-width="2.14286" stroke-linecap="round"/>
<path d="M219.518 200.906L227.596 155.045C227.762 154.098 228.405 153.303 229.296 152.942L246.614 145.924C248.172 145.293 249.93 146.171 250.361 147.795L265.255 203.861C265.75 205.722 264.256 207.513 262.337 207.361L222.047 204.174C220.405 204.044 219.232 202.529 219.518 200.906Z" fill="#FBF3E7"/>
<path d="M227.102 159.501C224.68 178.102 216.173 218.553 201.522 231.551" stroke="#232323" stroke-width="2.14286" stroke-linecap="round"/>
<path d="M232.059 91.5393C232.996 93.8539 227.105 107.018 224.043 113.31L221.978 116.738C221.303 117.859 219.939 118.36 218.698 117.944L182.586 105.814C181.119 105.321 180.333 103.729 180.833 102.264L189.054 78.1923C189.545 76.7547 191.093 75.9724 192.539 76.439C206.8 81.0408 231.179 89.3637 232.059 91.5393Z" fill="#E50A3E"/>
<path d="M236.944 109.429C253.5 112.419 255.625 120.943 254.619 124.831C258.893 127.409 256.35 132.436 254.544 134.627C253.995 141.585 249.089 159.401 241.331 160.188C235.124 160.817 229.12 158.289 226.894 156.946L226.858 148.541C219.729 139.575 219.717 126.738 220.602 121.44C218.376 120.097 213.722 116.415 212.917 112.43C211.912 107.45 216.248 105.692 236.944 109.429Z" fill="#E5A072"/>
<path d="M220.676 111.644C220.852 109.417 217.151 109.031 215.278 109.117C214.278 109.971 212.544 111.841 213.613 112.486C214.948 113.291 220.456 114.427 220.676 111.644Z" fill="#EFC6AA"/>
<path d="M223.128 116.039L224.208 111.223" stroke="#232323" stroke-width="2.23356" stroke-linecap="round"/>
<path d="M214.839 114.683C221.719 116.16 236.752 118.936 247.19 121.442" stroke="#232323" stroke-width="2.23356" stroke-linecap="round"/>
<path d="M240.839 139.844C236.953 138.837 228.828 137.774 227.407 141.583C225.632 146.343 228.303 147.955 234.507 149.146" stroke="#232323" stroke-width="2.23356" stroke-linecap="round"/>
<path d="M240.913 130.048C237.546 128.382 228.082 125.953 225.505 130.23C222.928 134.507 225.199 140.008 226.657 142.224" stroke="#232323" stroke-width="2.23356" stroke-linecap="round"/>
<path d="M229.971 117.98C226.83 119.366 220.938 124.268 225.505 130.23" stroke="#232323" stroke-width="2.23356" stroke-linecap="round"/>
<rect width="36.272" height="4.75513" rx="2.37757" transform="matrix(0.945619 0.325357 -0.324939 0.945707 194.418 80.8604)" fill="#F2D1BB"/>
<rect width="36.272" height="3.24483" rx="1.62242" transform="matrix(0.945619 0.325357 -0.324939 0.945707 192.382 86.3008)" fill="#F2D1BB"/>
</g>
</svg>
